<svg viewBox="11 28 490 458" xmlns="http://www.w3.org/2000/svg" fill-rule="evenodd" clip-rule="evenodd" stroke-linejoin="round" stroke-miterlimit="2">
  <g transform="translate(11 11) scale(10.2083)">
    <clipPath id="prefix__a">
      <path d="M0 0h48v48H0z"/>
    </clipPath>
    <g clip-path="url(#prefix__a)">
      <path d="M14.46 32.334c1.369 2.46 4.882 2.593 6.435.244l14.484-21.901c1.536-2.323.067-5.437-2.715-5.753L4.196 1.684C1.16 1.339-1.001 4.539.476 7.193l.115.207 12.703 8.705-.154 13.847 1.32 2.382z" fill="url(#prefix___Linear2)" transform="scale(1.33333)"/>
      <path d="M15.276 30.04l1.286-1.917 9.764-14.749c.853-1.29.038-3.02-1.506-3.197L.588 7.395l12.553 22.567a1.258 1.258 0 002.135.078z" fill="url(#prefix___Radial3)" fill-rule="nonzero" transform="scale(1.33333)"/>
    </g>
  </g>
  <defs>
    <radialGradient id="prefix___Radial3" cx="0" cy="0" r="1" gradientUnits="userSpaceOnUse" gradientTransform="matrix(-2.40732 36.6766 -47.2984 -3.1045 15.31 -2.936)">
      <stop offset="0" stop-color="#6d4aff"/>
      <stop offset=".4" stop-color="#6d4aff"/>
      <stop offset=".99" stop-color="#00f0c3"/>
      <stop offset="1" stop-color="#00f0c3"/>
    </radialGradient>
    <linearGradient id="prefix___Linear2" x1="0" y1="0" x2="1" y2="0" gradientUnits="userSpaceOnUse" gradientTransform="rotate(-120.108 25.59 6.79) scale(46.1773)">
      <stop offset="0" stop-color="#8effee"/>
      <stop offset=".07" stop-color="#8effee"/>
      <stop offset=".45" stop-color="#c9c7ff"/>
      <stop offset="1" stop-color="#7341ff"/>
    </linearGradient>
  </defs>
</svg>
