<?xml version="1.0" encoding="UTF-8" standalone="no"?>
<!-- Created with Inkscape (http://www.inkscape.org/) -->

<svg
   version="1.1"
   id="svg1"
   width="236"
   height="213.33333"
   viewBox="0 0 236 213.33333"
   sodipodi:docname="xremap.svg"
   inkscape:version="1.4.4 (dcaf3e7d9e, 2026-05-05)"
   xmlns:inkscape="http://www.inkscape.org/namespaces/inkscape"
   xmlns:sodipodi="http://sodipodi.sourceforge.net/DTD/sodipodi-0.dtd"
   xmlns="http://www.w3.org/2000/svg"
   xmlns:svg="http://www.w3.org/2000/svg">
  <defs
     id="defs1" />
  <sodipodi:namedview
     id="namedview1"
     pagecolor="#ffffff"
     bordercolor="#000000"
     borderopacity="0.25"
     inkscape:showpageshadow="2"
     inkscape:pageopacity="0.0"
     inkscape:pagecheckerboard="0"
     inkscape:deskcolor="#d1d1d1"
     inkscape:zoom="3.6491233"
     inkscape:cx="121.9471"
     inkscape:cy="89.199507"
     inkscape:window-width="1890"
     inkscape:window-height="1146"
     inkscape:window-x="0"
     inkscape:window-y="0"
     inkscape:window-maximized="0"
     inkscape:current-layer="g1" />
  <g
     inkscape:groupmode="layer"
     inkscape:label="Image"
     id="g1">
    <g
       id="g2"
       transform="translate(0.00677409,0.0013835)">
      <path
         style="fill:#e3e3e3"
         d="m 145.01873,127.91558 c -8.81881,-2.43749 -20.24878,-13.52369 -22.94029,-22.25033 -1.38,-4.47436 -5.37723,-6.175982 -8.10353,-3.44968 -2.11767,2.11766 -7.64749,9.99438 -10.80692,15.39344 -0.82427,1.40858 -3.18653,4.32279 -5.249457,6.47602 C 94.887298,127.24896 93.047768,128 88.329556,128 79.73338,128 74.731489,124.89632 74.687084,119.53484 74.639515,113.7914 87.61771,88.588345 94.333333,81.382725 c 3.478991,-3.73283 3.707122,-6.088919 1.037597,-10.71606 -1.057701,-1.833333 -2.482851,-4.533333 -3.167001,-6 C 91.51978,63.199998 87.628902,57.091034 83.557535,51.091187 75.157759,38.712701 73.258457,32.347792 76.491899,27.412937 c 2.514026,-3.836889 13.211265,-6.135079 16.732402,-3.594782 1.159968,0.83685 3.469792,2.109353 5.132943,2.827784 1.663146,0.718432 3.604146,2.832375 4.313326,4.697651 0.70917,1.865276 2.19841,3.740229 3.30942,4.166562 C 107.091,35.936485 108,37.421109 108,38.809317 c 0,1.388209 0.58208,2.524015 1.29352,2.524015 0.71144,0 2.66144,2.395379 4.33333,5.323064 1.6719,2.927685 3.93982,5.314874 5.03982,5.304865 C 120.51446,51.944447 128,42.825755 128,40.591638 c 0,-1.973583 9.49514,-15.220426 12.33609,-17.210305 3.06387,-2.14602 16.35873,-2.837073 19.24716,-1.000447 0.87079,0.553695 2.1974,2.622058 2.94803,4.596362 1.72769,4.544151 0.13073,9.339904 -6.7304,20.211759 -2.82689,4.479379 -5.71459,9.470365 -6.4171,11.09108 -0.70251,1.620716 -2.23857,4.020715 -3.41346,5.333333 -1.17489,1.312618 -3.64269,4.727823 -5.484,7.589344 l -3.34782,5.202765 4.24908,8.130568 c 2.337,4.471812 7.43051,12.930567 11.31891,18.797233 7.74656,11.6877 8.27082,15.77202 2.75036,21.42722 -3.60031,3.68819 -5.94504,4.3969 -10.43812,3.15503 z"
         id="path5"
         sodipodi:nodetypes="sssssssssssssssssssssssssssscssss" />
      <path
         style="fill:#9f9f9f"
         d="m 78.68881,127.61867 c -4.332752,-2.19222 -6.340691,-7.80876 -4.248864,-11.88478 l 1.574109,-3.06723 -0.794087,3.09623 C 73.210459,123.59819 77.980202,128 88.479949,128 c 4.551835,0 6.436916,-0.7819 9.438584,-3.91497 2.062927,-2.15323 4.425187,-5.06744 5.249457,-6.47602 3.15943,-5.39906 8.68925,-13.27578 10.80692,-15.39344 2.7263,-2.726302 6.72353,-1.02468 8.10353,3.44968 2.76432,8.96271 17.09001,22.33475 23.92759,22.33475 1.34113,0 2.09972,0.33869 1.68577,0.75264 -0.41395,0.41395 -2.84575,0.35998 -5.40398,-0.11995 -3.11287,-0.58398 -6.90653,-3.116 -11.46958,-7.65519 C 127.06821,117.24708 124,113.68913 124,113.07096 c 0,-2.19713 -6.78071,-11.82452 -7.85887,-11.15818 -0.60317,0.37278 -4.61069,5.85124 -8.90559,12.17436 -4.29491,6.32313 -9.013412,12.34025 -10.485571,13.37139 -3.31151,2.31947 -13.612895,2.41081 -18.061159,0.16014 z m 72.64452,0.42313 c 3.7566,-1.5813 6.81244,-5.61813 7.6918,-10.16104 0.60602,-3.1308 -0.5951,-5.94212 -6.21531,-14.54743 -10.52001,-16.107566 -11.74106,-18.179871 -11.09353,-18.827398 0.63457,-0.634571 11.50719,15.755828 13.29343,20.039768 0.58381,1.40014 1.98525,3.22119 3.11432,4.04678 1.12906,0.8256 2.34839,3.88003 2.70961,6.78763 0.56665,4.56123 0.0879,5.8811 -3.48936,9.61989 -2.28036,2.38333 -5.16571,4.2953 -6.41187,4.24882 -1.85136,-0.0691 -1.77803,-0.28982 0.40091,-1.20702 z M 76.532468,108.72666 c 1.052765,-4.19455 4.853855,-10.45145 5.784142,-9.521164 0.34213,0.34213 -0.339145,1.994354 -1.513945,3.671624 -1.174799,1.67726 -2.135998,4.08065 -2.135998,5.34086 0,1.26022 -0.687506,2.71621 -1.527791,3.23553 -1.081784,0.66858 -1.258812,-0.12747 -0.606408,-2.72685 z m 6.134199,-12.321662 c 0,-1.130967 6.102927,-10.305711 10.387648,-15.616111 3.28212,-4.067798 3.19889,-9.393825 -0.189435,-12.122222 -0.910708,-0.733333 -2.432693,-3.239957 -3.38219,-5.570274 -0.949496,-2.330318 -2.871532,-5.27331 -4.27119,-6.539983 -1.399658,-1.266674 -2.544833,-3.190965 -2.544833,-4.276204 0,-2.493252 3.910881,2.356619 8.20669,10.177089 1.719654,3.13061 3.867798,7.008422 4.773654,8.617362 2.408327,4.277557 2.065817,6.83631 -1.393489,10.410192 -1.693896,1.75 -4.719189,6.031818 -6.722872,9.515151 -3.42783,5.959163 -4.863983,7.555059 -4.863983,5.405 z M 138.67252,79.344277 c -1.51415,-2.829216 -1.47263,-3.664232 0.28165,-5.664658 1.13168,-1.290458 3.04535,-4.296287 4.25262,-6.679621 1.20726,-2.383333 2.77216,-4.333333 3.47756,-4.333333 0.70539,0 -0.75134,3.179444 -3.23717,7.06543 -3.49785,5.468014 -4.2201,7.600787 -3.19456,9.433337 0.72883,1.302349 1.07106,2.622001 0.7605,2.932561 -0.31056,0.31056 -1.36383,-0.928613 -2.3406,-2.753716 z m 10.19773,-20.010945 c 0.48237,-1.466667 1.44135,-3.397364 2.13106,-4.290438 3.01799,-3.907881 10.10362,-16.469353 11.41998,-20.245454 1.88058,-5.394648 -0.26831,-11.904246 -4.22119,-12.787186 -1.57672,-0.352186 -5.56677,-0.843745 -8.86677,-1.092354 -5.36934,-0.404504 -5.18779,-0.476499 1.72728,-0.684958 6.60134,-0.199001 8.20413,0.243921 11,3.039785 4.11245,4.112453 4.1071,6.873426 -0.0304,15.689254 -5.40384,11.513998 -15.26976,26.786265 -13.15995,20.371351 z m -35.2434,-12.676936 c -1.67189,-2.927685 -3.62189,-5.323064 -4.33333,-5.323064 -0.71144,0 -1.29352,-1.135806 -1.29352,-2.524015 0,-1.388208 -0.909,-2.872832 -2.02001,-3.299165 -1.11101,-0.426333 -2.60025,-2.301286 -3.30942,-4.166562 -0.70918,-1.865276 -2.741892,-3.943642 -4.517141,-4.61859 -2.95997,-1.125379 -6.005005,-4.058334 -4.213419,-4.058334 1.782883,0 10.02839,6.124528 10.04349,7.460017 0.009,0.803009 1.2165,2.546001 2.68317,3.873316 1.46666,1.327315 2.66666,3.190494 2.66666,4.140397 0,0.949903 0.75,2.20691 1.66667,2.79335 0.91667,0.586439 2.66927,2.850455 3.89468,5.031145 1.2254,2.180691 2.74967,4.138781 3.38727,4.351312 0.63759,0.21253 2.63498,-2.044215 4.43865,-5.01499 8.62366,-14.203797 15.51049,-23.304601 17.95226,-23.723522 2.46855,-0.423518 2.4469,-0.301056 -0.30011,1.697598 C 137.47774,25.381615 128,38.646246 128,40.591638 c 0,2.234117 -7.48554,11.352809 -9.33333,11.369623 -1.1,0.01001 -3.36792,-2.37718 -5.03982,-5.304865 z m -33.852362,1.01027 c -1.797639,-1.448408 -4.355839,-6.333334 -3.31672,-6.333334 0.205742,0 1.704874,1.8 3.331404,4 3.206615,4.33718 3.202911,4.925838 -0.01468,2.333334 z m -5.631836,-9.775717 c -1.328145,-3.461089 -0.93104,-7.121326 1.224922,-11.290496 1.55045,-2.99824 2.898116,-3.890604 5.666666,-3.752211 3.191668,0.159544 3.264421,0.252212 0.599582,0.763706 -4.571327,0.877428 -7.437061,6.131858 -6.389563,11.715501 0.908901,4.844856 0.309279,6.24021 -1.101607,2.5635 z m 12.882724,-16.14827 c 1.29729,-0.338058 3.09729,-0.315826 4,0.04941 0.90271,0.365231 -0.158709,0.641823 -2.358709,0.614651 -2.2,-0.02717 -2.938581,-0.325999 -1.641291,-0.664056 z"
         id="path4"
         sodipodi:nodetypes="sscssssssssssssssssssssssscssssssssssssssssssssssssssssssssssssssssssscsssssssssssssssssssssssssss" />
      <path
         style="fill:#4a4a4a"
         d="m 44.274819,210.4935 c -1.25115,-0.46191 11.825181,-0.85364 29.058514,-0.87052 17.233334,-0.0169 30.433337,0.19791 29.333337,0.4773 -3.566234,0.90578 -56.046232,1.25919 -58.391851,0.39322 z m 62.270931,0.0702 c -1.36755,-0.86573 -0.88093,-1.19512 1.78758,-1.20997 3.98165,-0.0222 4.6986,0.63162 1.87909,1.71357 -0.98317,0.37727 -2.63317,0.15065 -3.66667,-0.5036 z m 50.23914,0.44338 c -0.39868,-0.39867 -10.13925,-0.6375 -21.64571,-0.53071 -11.50646,0.10678 -20.66997,-0.0515 -20.36334,-0.35167 0.30662,-0.3002 7.45749,-0.65948 15.89083,-0.79841 23.59976,-0.38878 48.47704,-0.0256 47.75425,0.69721 -0.94225,0.94225 -20.77573,1.84389 -21.63603,0.98358 z m 38.29945,-0.73218 c -2.43273,-1.34187 -0.97144,-1.56502 8.82239,-1.34718 9.99993,0.22241 12.5849,-0.19189 17.45718,-2.79792 10.49864,-5.6154 10.40416,-4.86099 10.38059,-82.88741 -0.0162,-53.590084 -0.41313,-69.495932 -1.88251,-75.434871 -2.87473,-11.619064 -2.05051,-12.239316 1.54691,-1.164108 1.80472,5.556117 2.86235,11.1686 2.38691,12.666565 -0.46954,1.479389 -0.74841,11.689845 -0.61972,22.6899 0.28149,24.060244 0.16155,71.882154 -0.24244,96.666764 -0.24364,14.94681 -0.718,18.68342 -2.79658,22.02904 -3.2809,5.28083 -13.07145,9.8288 -21.03576,9.77166 -3.42761,-0.0246 -7.32761,0.28391 -8.66666,0.68556 -1.33906,0.40164 -3.7467,0.007 -5.35031,-0.878 z M 18,209.19746 c -5.294838,-1.62645 -7.626259,-3.54591 -11.8287484,-9.73863 -3.143681,-4.63247 -3.5045849,-6.40378 -3.5045849,-17.20045 0,-14.39541 0.99209,-15.017 1.4620965,-0.91607 0.6168197,18.50555 6.3501788,25.92697 21.5577278,27.90492 7.393194,0.96159 7.649302,1.08669 2.313509,1.13011 -3.3,0.0268 -7.8,-0.5041 -10,-1.17988 z m 16.666667,0.95797 c 0,-0.28118 1.481842,-0.7945 3.292983,-1.14072 1.811141,-0.34622 2.975731,-0.11617 2.587978,0.51123 -0.682774,1.10475 -5.880961,1.66116 -5.880961,0.62949 z m 147.666663,-0.42975 c 1.65,-0.3178 4.35,-0.3178 6,0 1.65,0.31781 0.3,0.57783 -3,0.57783 -3.3,0 -4.65,-0.26002 -3,-0.57783 z M 2.7603804,151.88889 C 2.8137373,142.4628 3.3022735,136.4817 3.8948253,138 c 1.1753436,3.01158 0.8104671,28.40581 -0.4259132,29.6422 -0.441235,0.44123 -0.7600743,-6.64776 -0.7085317,-15.75331 z m 91.3861956,7.148 c -0.162253,-0.16304 -11.965575,-0.52211 -26.229606,-0.79794 -28.229166,-0.54588 -30.495821,-1.06859 -37.756833,-8.70699 -2.630979,-2.76772 -3.552625,-4.78797 -2.927488,-6.41704 0.501805,-1.30769 0.895195,-28.79351 0.874199,-61.0796 -0.04131,-63.519164 0.185444,-65.7397 6.636763,-64.9929 7.433829,0.860536 7.282638,-0.467999 6.949868,61.069481 l -0.306521,56.683319 4.862187,4.26905 c 4.794498,4.20963 7.525828,4.94947 18.417522,4.9888 19.357266,0.0699 49.355813,-0.0528 56.666663,-0.23183 14.55822,-0.35646 23.04046,-0.23572 29.67476,0.4224 3.48778,0.34598 6.65762,0.31287 7.04408,-0.0736 0.38646,-0.38647 7.13282,-0.8699 14.99191,-1.07431 l 14.28925,-0.37164 3.53039,-4.31224 3.53038,-4.31224 -0.0152,-31.38314 c -0.0329,-67.763582 0.45922,-81.064322 3.10423,-83.903401 2.55857,-2.746307 6.6702,-2.508162 9.19373,0.5325 0.96141,1.158434 1.52255,20.960958 1.71035,60.35829 l 0.27949,58.634221 -5.0114,7.27841 c -2.75627,4.00313 -6.50627,7.97706 -8.33333,8.83096 -1.82707,0.85389 -4.67194,2.15144 -6.32194,2.88344 -2.46999,1.09576 -93.825556,2.73885 -94.853424,1.70599 z M 2.8832249,128.86593 c 0.081293,-4.1392 0.5378126,-5.81915 1.2681466,-4.66666 1.5086315,2.38066 1.4492888,6.64806 -0.1270188,9.13406 -0.8953784,1.41211 -1.2308097,0.0989 -1.1411278,-4.4674 z M 147.75,129.75584 c 0.9625,-0.38516 2.1125,-0.33779 2.55556,0.10527 0.44305,0.44305 -0.34445,0.75819 -1.75,0.70029 -1.55326,-0.064 -1.8692,-0.37992 -0.80556,-0.80556 z m -49.300577,-4.08918 c 1.967697,-2.01666 4.667267,-5.16666 5.999047,-7 2.39522,-3.29725 2.39677,-3.29004 0.14335,0.66667 -2.67571,4.69819 -7.299778,10 -8.721675,10 -0.549092,0 0.611582,-1.65 2.579278,-3.66667 z M 139.75,128.42251 c 0.9625,-0.38516 2.1125,-0.33779 2.55556,0.10526 0.44305,0.44306 -0.34445,0.75819 -1.75,0.7003 -1.55326,-0.064 -1.8692,-0.37992 -0.80556,-0.80556 z m -67.016605,-5.13842 c -2.298507,-4.26807 -2.342596,-4.91299 -0.464273,-6.79131 1.878322,-1.87832 2.01268,-1.74726 1.414846,1.3801 -0.380235,1.98907 0.267001,4.87115 1.525138,6.79131 1.202136,1.8347 1.708313,3.33581 1.124837,3.33581 -0.583476,0 -2.203723,-2.12216 -3.600548,-4.71591 z m 60.499025,1.04924 -3.23242,-3.66667 3.66667,3.23242 c 3.42705,3.02118 4.27811,4.10092 3.23242,4.10092 -0.23884,0 -1.88884,-1.65 -3.66667,-3.66667 z m 25.31528,-0.87336 c 2.56142,-2.72651 3.00261,-4.27298 2.35594,-8.25797 -0.43763,-2.69677 -2.01997,-6.04382 -3.51633,-7.43788 -1.49635,-1.39407 -2.72064,-3.15733 -2.72064,-3.91836 0,-2.87403 6.71736,6.74105 7.52272,10.76785 0.93085,4.65428 -1.30402,10.09467 -4.67881,11.3897 -1.33585,0.51261 -0.95393,-0.42397 1.03712,-2.54334 z M 2.8436936,115.33333 c 0.09242,-6.42229 0.1359378,-6.49657 1.1871931,-2.02626 0.6053231,2.57405 0.5626026,5.5427 -0.095937,6.66667 -0.7994592,1.36449 -1.1558604,-0.15106 -1.0912561,-4.64041 z m 122.8706164,2.40074 c -1.62379,-1.68707 -2.46679,-3.06741 -1.87332,-3.06741 1.30022,0 6.15114,5.18424 5.37306,5.74225 -0.30106,0.21591 -1.87594,-0.98777 -3.49974,-2.67484 z m -50.94238,-6.51185 c 0.06398,-1.55326 0.37992,-1.8692 0.805555,-0.80556 0.385161,0.9625 0.337793,2.1125 -0.105263,2.55556 -0.443055,0.44306 -0.758187,-0.34444 -0.700292,-1.75 z M 109.2205,111 c 0.72289,-1.28334 2.71799,-4.04664 4.43357,-6.14068 2.98619,-3.64493 3.20228,-3.70181 5.06592,-1.33333 1.75234,2.22703 1.73241,2.30682 -0.19971,0.79924 -1.83416,-1.43116 -2.68482,-0.8978 -5.848,3.66666 -3.76884,5.43845 -5.83497,7.23901 -3.45178,3.00811 z m 12.86522,0.0575 c -0.72358,-1.90026 -0.57042,-2.05341 0.7464,-0.74639 0.91122,0.90444 1.32089,1.98032 0.91038,2.39084 -0.41052,0.41051 -1.15607,-0.32949 -1.65678,-1.64445 z M 2.924459,97.076803 c 0.2147199,-5.591802 0.848922,-9.88353 1.409338,-9.537174 1.225327,0.757294 0.4505276,17.453821 -0.8712797,18.775631 -0.510652,0.51065 -0.7527782,-3.64665 -0.5380583,-9.238457 z m 74.408874,5.589857 c 0,-0.73333 0.635411,-1.33333 1.412023,-1.33333 0.776612,0 1.041202,0.6 0.587977,1.33333 C 78.880108,103.4 78.244698,104 77.921311,104 c -0.323388,0 -0.587978,-0.6 -0.587978,-1.33334 z m 74.496597,-3.666662 c -1.6585,-2.114741 -1.61134,-2.161902 0.5034,-0.503407 1.28334,1.006459 2.33334,2.056459 2.33334,2.333329 0,1.09738 -1.09492,0.39107 -2.83674,-1.829922 z M 80.951954,97.314392 c 0.386795,-1.479106 1.174884,-2.980762 1.75131,-3.337013 0.576425,-0.35625 0.731577,0.562451 0.344782,2.041557 -0.386795,1.479107 -1.174884,2.980763 -1.75131,3.337013 -0.576425,0.356251 -0.731577,-0.56245 -0.344782,-2.041557 z m 65.844116,-6.061171 c -1.54037,-2.610727 -2.19537,-4.37268 -1.45555,-3.91545 1.44481,0.892944 5.77281,8.662227 4.82542,8.662227 -0.31306,0 -1.8295,-2.13605 -3.36987,-4.746777 z M 84,90.809316 c 0,-0.654875 0.984866,-1.56861 2.188591,-2.030523 1.829963,-0.702222 1.912453,-0.507114 0.503407,1.190682 C 84.771831,92.283135 84,92.523929 84,90.809316 Z m 4,-4.854324 c 0,-0.593094 0.858455,-2.026934 1.907678,-3.186312 1.049222,-1.159378 2.845526,-3.906622 3.991785,-6.104988 1.161979,-2.228513 2.087743,-3.045746 2.092323,-1.847033 C 95.996304,75.999155 94.2,79.231658 92,81.999998 c -2.2,2.76834 -4,4.548087 -4,3.954994 z m 52.87743,-4.954994 c -1.69823,-4.095393 -1.54382,-4.736001 2.81207,-11.666666 2.53494,-4.033334 6.04182,-9.2433 7.79307,-11.577704 1.75125,-2.334404 3.1841,-4.848994 3.1841,-5.587977 0,-0.738984 0.59312,-1.71018 1.31806,-2.158213 2.34246,-1.447723 -0.13983,3.211602 -7.9933,15.003628 -7.5142,11.282616 -7.61564,11.56065 -5.80178,15.901831 1.01537,2.430139 1.53981,4.418434 1.1654,4.418434 -0.3744,0 -1.48934,-1.95 -2.47762,-4.333333 z M 2.6666667,78.666665 c 0,-2.432061 0.5533353,-3.815399 1.3333333,-3.333333 0.7333333,0.453224 1.3333333,1.953224 1.3333333,3.333333 0,1.380108 -0.6,2.880108 -1.3333333,3.333333 C 3.220002,82.482063 2.6666667,81.098725 2.6666667,78.666665 Z M 91.901503,69.494649 c -1.154173,-1.188724 -2.858998,-4.067941 -3.7885,-6.398258 -0.929502,-2.330318 -2.835178,-5.27331 -4.234836,-6.539983 -1.399659,-1.266674 -2.544834,-3.193905 -2.544834,-4.282736 0,-1.088831 -1.05,-2.828938 -2.333333,-3.866905 -2.105731,-1.703126 -2.040702,-1.745402 0.666667,-0.433411 1.65,0.79959 3,2.539697 3,3.866904 0,1.327208 1.145175,3.449474 2.544833,4.716148 1.399658,1.266673 3.321694,4.209665 4.27119,6.539983 0.949497,2.330317 2.653378,4.937884 3.786404,5.794593 1.133026,0.856708 1.76099,1.829301 1.395476,2.161317 -0.365513,0.332017 -1.608894,-0.368927 -2.763067,-1.557652 z M 3.3226162,57.878298 C 3.7577878,49.346266 4.768365,44.015824 6.7351642,39.878299 8.2720222,36.645234 9.1407401,35.499999 8.6656483,37.333332 5.6957785,48.793773 3.9652527,58.36187 4.4454849,60.666665 c 0.305598,1.466667 0.038861,4.166667 -0.5927484,6 C 3.1236349,68.782983 2.9300854,65.574308 3.3226162,57.878298 Z M 115.38014,47.217647 c -1.24293,-1.89696 -1.91194,-3.79696 -1.48668,-4.222222 0.42526,-0.425262 0.77321,-0.186341 0.77321,0.530936 0,0.717278 1.22337,2.617278 2.7186,4.222223 1.49524,1.604945 2.16424,2.918081 1.48668,2.918081 -0.67756,0 -2.24887,-1.552058 -3.49181,-3.449018 z m 46.36768,-7.432075 c 2.24215,-4.671601 3.59743,-9.349475 3.24415,-11.197518 -0.33371,-1.745712 -0.0934,-2.856769 0.53397,-2.469016 2.04753,1.265442 1.20493,6.582142 -2.14301,13.522083 -1.80606,3.743776 -3.77925,7.113108 -4.38488,7.487406 -0.60563,0.374297 0.63177,-2.930033 2.74977,-7.342955 z m -36.35057,-0.45224 c 2.3133,-4.399999 5.40127,-9.199999 6.86213,-10.666666 1.46087,-1.466667 0.35014,1.010212 -2.46829,5.504174 -7.92087,12.629749 -8.96433,13.855751 -4.39384,5.162492 z m -49.899199,3.948454 c -1.286638,-3.352924 -0.90708,-4.218072 0.664712,-1.515117 0.778254,1.338336 1.134132,2.714213 0.79084,3.057504 -0.343292,0.343292 -0.99829,-0.350782 -1.455552,-1.542387 z m -3.634922,-8.281787 c -1.000926,-2.613626 -0.980331,-4.241052 0.07171,-5.666666 0.811752,-1.1 1.828473,-3.05 2.259378,-4.333334 0.430906,-1.283333 1.328895,-2.333333 1.995531,-2.333333 0.666635,0 0.240206,1.879368 -0.947622,4.176373 -1.187827,2.297006 -1.907151,5.897006 -1.598497,8 0.707674,4.821693 0.02884,4.881535 -1.7805,0.15696 z m 34.010191,-2 -2.53999,-3 3,2.539984 c 2.81926,2.386957 3.60699,3.460016 2.53999,3.460016 -0.25301,0 -1.60301,-1.35 -3,-3 z M 9.4275162,31.519594 C 9.3228587,28.763329 17.129326,16 18.919804,16 c 0.625552,0 1.785673,-1.42288 2.578049,-3.161955 0.86223,-1.892388 4.508054,-4.5780569 9.080208,-6.6888674 L 38.217587,2.6222646 74.108793,3.0005184 110,3.3787721 74,3.7015767 C 39.373894,4.0120619 37.755405,4.1428386 31.590913,7.1283037 24.546791,10.539774 15.705907,20.217378 11.914745,28.666666 10.488426,31.845474 9.4836517,32.997981 9.4275162,31.519594 Z M 224.27132,29.124516 C 223.02209,26.809666 220.95,23.809666 219.66667,22.457849 218.38333,21.106032 217.31437,19.55 217.2912,19 217.19508,16.718729 210.3773,10.437782 204.74852,7.4449325 198.74371,4.2521435 198.49965,4.23576 155.84537,4.1621952 132.26785,4.1215316 112.65729,3.7684026 112.26635,3.377464 111.87541,2.9865254 131.1755,2.6666666 155.15544,2.6666666 c 43.37675,0 43.63206,0.016365 49.88888,3.1978063 3.45896,1.7587935 8.38013,5.6997291 10.93595,8.7576341 5.03047,6.018712 12.76426,18.711226 11.40111,18.711226 -0.46131,0 -1.86083,-1.893968 -3.11006,-4.208817 z m -123.60465,-2.45785 c -0.45323,-0.733333 -0.22405,-1.333333 0.50928,-1.333333 0.73334,0 1.70416,0.6 2.15738,1.333333 0.45323,0.733333 0.22405,1.333333 -0.50928,1.333333 -0.73334,0 -1.70416,-0.6 -2.15738,-1.333333 z m -6.000003,-3.444409 c -2.241804,-1.24394 -2.622723,-1.856049 -1.16326,-1.869268 1.193541,-0.01081 2.917007,0.880344 3.829926,1.980344 1.947035,2.346033 1.746423,2.337677 -2.666666,-0.111076 z m 42.345053,-0.579763 c 2.5512,-2.760272 4.48949,-3.333148 12.67626,-3.746561 8.68167,-0.438404 9.93476,-0.182692 12.32161,2.514417 l 2.65708,3.002454 -3.70637,-2.385763 c -4.83861,-3.114579 -19.59412,-2.229074 -24.0247,1.441767 -2.86314,2.372179 -2.86127,2.351785 0.0761,-0.826314 z M 81,21.783625 c 0.916667,-0.369883 2.416667,-0.369883 3.333333,0 C 85.25,22.153508 84.5,22.45614 82.666667,22.45614 80.833333,22.45614 80.083333,22.153508 81,21.783625 Z"
         id="path3" />
      <path
         style="fill:#272727"
         d="M 47.833763,210.05598 C 47.452276,209.67449 40.583617,209.20251 32.570075,209.00713 19.419326,208.68649 17.565214,208.32789 13.536709,205.32594 4.3092884,198.44987 3.755645,195.29964 4.1648404,152 4.2306776,145.03333 4.2527494,138.13333 4.2138889,136.66666 4.1750284,135.2 4.151006,131.75 4.1605056,129 4.1846062,122.02327 4.1482172,119.99915 3.902825,114.66666 3.6497789,109.16786 3.673954,108.57491 4.6043117,97.461381 5.0620568,91.993413 4.7699013,88.261006 3.7919086,87.082596 2.6366967,85.690651 2.6933081,84.441574 4.024325,81.954546 5.4478377,79.294689 5.4636839,78.06825 4.1072841,75.533794 2.8640249,73.210743 2.7851023,71.117102 3.8019642,67.434332 4.5562022,64.702707 4.8591713,61.649119 4.4752287,60.64858 3.1801694,57.27371 9.2121025,33.394486 13.416742,25.250908 16.530087,19.220957 25.889316,9.8899449 31.590913,7.13153 c 6.37264,-3.0830632 6.701006,-3.1004708 57.74242,-3.0610901 28.233337,0.021783 64.342787,0.040801 80.243227,0.042263 28.12277,0.00258 29.0773,0.091666 35.05839,3.271845 C 210.35761,10.427314 217.19437,16.701844 217.2912,19 c 0.0232,0.55 0.97945,2.049999 2.12506,3.333333 C 223.5523,26.966616 228,34.842593 228,37.533418 c 0,1.511581 0.8379,6.134936 1.86199,10.274121 1.46938,5.938939 1.86632,21.844787 1.88251,75.434871 0.0235,77.94971 0.10719,77.27782 -10.31386,82.85172 -4.71438,2.52157 -7.68078,3.01765 -17.87486,2.98924 -6.72235,-0.0187 -19.72245,0.0333 -28.88911,0.11555 -9.16667,0.0823 -40.51867,0.16579 -69.67113,0.18557 -29.152446,0.0198 -53.783786,0.33501 -54.736308,0.70053 -0.952521,0.36551 -2.043982,0.35245 -2.425469,-0.029 z M 189,157.3309 c 1.65,-0.732 4.49487,-2.02955 6.32194,-2.88344 1.82706,-0.8539 5.57706,-4.82783 8.33333,-8.83096 l 5.0114,-7.27841 -0.27949,-58.634221 c -0.1878,-39.397332 -0.74894,-59.199856 -1.71035,-60.35829 -2.52353,-3.040662 -6.63516,-3.278807 -9.19373,-0.5325 -2.64501,2.839079 -3.1371,16.139819 -3.10423,83.903401 l 0.0152,31.38314 -3.53038,4.31224 -3.53039,4.31224 -14.28925,0.37164 c -7.85909,0.20441 -14.60545,0.68784 -14.99191,1.07431 -0.38646,0.38646 -3.5563,0.41957 -7.04408,0.0736 -6.6343,-0.65812 -15.11654,-0.77886 -29.67476,-0.4224 -7.31085,0.179 -37.309397,0.30173 -56.666663,0.23183 -10.891694,-0.0393 -13.623024,-0.77917 -18.417522,-4.9888 l -4.862187,-4.26905 0.306521,-56.683319 c 0.33277,-61.53748 0.483961,-60.208945 -6.949868,-61.069481 -6.451319,-0.7468 -6.67807,1.473736 -6.636763,64.9929 0.021,32.28609 -0.372394,59.77191 -0.874199,61.0796 -0.625137,1.62907 0.296509,3.64932 2.927488,6.41704 7.261012,7.6384 9.527667,8.16111 37.756833,8.70699 14.264031,0.27583 26.067353,0.6349 26.229606,0.79794 1.027868,1.03286 92.383434,-0.61023 94.853424,-1.70599 z m -30.11827,-32.44789 c 4.04824,-4.43226 4.76328,-9.11517 2.09861,-13.74415 -1.58976,-2.7617 -9.46905,-14.776868 -14.40026,-21.959052 -1.31672,-1.917771 -3.25861,-5.556067 -4.3153,-8.085101 -1.90808,-4.566673 -1.86981,-4.676536 5.57364,-16.000956 12.58337,-19.144254 18.82825,-30.714474 18.82825,-34.884102 0,-1.443534 -1.57757,-4.692905 -3.50571,-7.220824 l -3.5057,-4.596216 -9.99175,0.50456 c -9.75201,0.492454 -10.10125,0.631708 -14.55528,5.803695 -2.50994,2.914525 -6.99032,9.649135 -9.95639,14.965802 -2.96608,5.316666 -5.78864,9.629528 -6.27236,9.584136 -1.13615,-0.106616 -9.54615,-11.620031 -9.54615,-13.068826 0,-0.606105 -1.2,-2.187995 -2.66666,-3.51531 C 105.2,31.339351 104,29.431508 104,28.427015 c 0,-1.004493 -1.44172,-2.374491 -3.20381,-3.044439 -1.762102,-0.669949 -3.597512,-1.855098 -4.078694,-2.633666 -0.954244,-1.543999 -11.309666,-1.897143 -17.766062,-0.605864 -2.226711,0.445342 -4.384291,1.795342 -4.794623,3 -0.410332,1.204658 -1.439799,3.128347 -2.287704,4.274865 -1.222465,1.652989 -0.687288,3.930425 2.584899,11 2.2696,4.903482 4.745921,8.915421 5.502936,8.915421 0.757015,0 1.376391,1.126533 1.376391,2.503407 0,1.376874 0.99751,3.326874 2.216688,4.333333 1.219178,1.00646 3.347255,4.379927 4.729059,7.496593 1.381804,3.116667 3.072864,5.666667 3.75791,5.666667 0.685046,0 1.623541,1.506085 2.085545,3.346855 0.611196,2.435197 -0.108265,4.590105 -2.641264,7.911037 C 89.566572,83.101524 88,85.765625 88,86.511449 c 0,0.745823 -0.805261,1.835856 -1.789469,2.422295 -0.984208,0.58644 -2.899676,3.616254 -4.256597,6.73292 -1.356921,3.116667 -2.873683,5.666666 -3.370583,5.666666 -0.4969,0 -1.672665,2.85 -2.612811,6.33333 -0.940147,3.48334 -2.61205,7.38437 -3.715341,8.66896 -1.795461,2.09051 -1.742586,2.82473 0.503829,6.99607 2.852256,5.29632 6.31638,6.41265 17.848695,5.75182 7.996594,-0.45823 6.960197,0.49401 20.592677,-18.92045 2.86023,-4.07333 5.7188,-7.08568 6.35239,-6.6941 1.36293,0.84234 6.78974,11.1977 5.86825,11.1977 -0.63353,0 1.92751,2.61081 9.6804,9.86848 7.62584,7.13875 19.43227,7.29806 25.78029,0.34787 z"
         id="path2" />
    </g>
  </g>
</svg>
